<?xml version="1.0" encoding="UTF-8"?>
<svg width="32px" height="32px" viewBox="0 0 32 32" version="1.1" xmlns="http://www.w3.org/2000/svg" xmlns:xlink="http://www.w3.org/1999/xlink">
    <title>hcclogo</title>
    <g id="hcclogo" stroke="none" stroke-width="1" fill="none" fill-rule="evenodd">
        <path d="M16,3 C23.132895,3 29,7.57515293 29,13.3575682 C29,16.1009782 27.6643813,18.6573165 25.3506009,20.562324 L25.0895069,20.7712876 L23.8614017,19.1927573 C25.871033,17.6292532 27,15.55126 27,13.3575682 C27,8.80389907 22.121939,5 16,5 C9.87806102,5 5,8.80389907 5,13.3575682 C5,15.4673687 6.04435758,17.4701176 7.91150739,19.0108164 L8.15969658,19.2091276 L6.93573445,20.7908724 C4.44647201,18.8646686 3,16.212547 3,13.3575682 C3,7.57515293 8.86710498,3 16,3 Z" id="body" fill="#000000" fill-rule="nonzero"></path>
        <polygon id="right-leg" fill="#000000" fill-rule="nonzero" points="20 12 20 29 18 29 18 12"></polygon>
        <path d="M14.0044178,12 L14.0044178,22.8048418 C14.0044178,24.5168515 13.350064,26.3024367 12.0723597,28.1624434 L11.840418,28.4914526 L10.219582,27.3197485 C11.3510249,25.7546063 11.933724,24.3291214 11.9983618,23.0441309 L12.0044178,22.8048418 L12.0044178,12 L14.0044178,12 Z" id="left-leg" fill="#000000" fill-rule="nonzero"></path>
    </g>
</svg>